# xmcd
#
# Track frame offsets:
#	150
#	18224
#	39022
#	59966
#	78388
#	96392
#	114731
#	133780
#
# Disc length: 2035 seconds
#
# Revision: 21
# Processed by: cddbd v1.5.2PL0 Copyright (c) Steve Scherf et al.
# Submitted via: Jack! The Knife 20 Magnifico
#
DISCID=6807f108
DTITLE=Accept - I'm A Rebel
DYEAR=1980
DGENRE=Metal
TTITLE0=I'm A Rebel
TTITLE1=Save Us
TTITLE2=No Time To Lose
TTITLE3=Thunder And Lightning
TTITLE4=China Lady
TTITLE5=I Wanna Be No Hero
TTITLE6=The King
TTITLE7=Do It
EXTD=Dirk Steffens
EXTT0=George Alexander
EXTT1=Dirkschneider, Baltes, Hoffmann, Fischer, Kaufmann
EXTT2=Dirkschneider, Baltes, Hoffmann, Fischer, Kaufmann, Steffens
EXTT3=Dirkschneider, Baltes, Hoffmann, Fischer, Kaufmann
EXTT4=Dirkschneider, Baltes, Hoffmann, Fischer, Kaufmann, Steffens
EXTT5=Dirkschneider, Baltes, Hoffmann, Fischer, Kaufmann, Steffens
EXTT6=Dirkschneider, Baltes, Hoffmann, Fischer, Kaufmann, Steffens
EXTT7=Dirkschneider, Baltes, Hoffmann, Fischer, Kaufmann
PLAYORDER=
